<?xml version="1.0" standalone="no"?>
<!DOCTYPE svg PUBLIC "-//W3C//DTD SVG 1.1//EN" "http://www.w3.org/Graphics/SVG/1.1/DTD/svg11.dtd" >
<svg>
<metadata>
Created by FontForge 20090914 at Fri Nov 19 17:15:13 2010
 By apache
Copr.1993 Tobias Frere-Jones. Produced by The Font Bureau, Inc. Based on a design by S.H. deRoos.
</metadata>
<defs>
<font id="Nobel" horiz-adv-x="730" >
  <font-face 
    font-family="Nobel"
    font-weight="400"
    font-stretch="normal"
    units-per-em="1000"
    panose-1="2 0 6 3 3 0 0 2 0 3"
    ascent="800"
    descent="-200"
    x-height="416"
    cap-height="730"
    bbox="-68 -189 1114 935"
    underline-thickness="20"
    underline-position="-113"
    stemh="88"
    stemv="96"
    unicode-range="U+0020-U+FB02"
  />
<missing-glyph horiz-adv-x="500" 
 />
    <glyph glyph-name=".notdef" horiz-adv-x="500" 
 />
    <glyph glyph-name="NUL" horiz-adv-x="0" 
 />
    <glyph glyph-name="Eth" unicode="&#xd0;" horiz-adv-x="726" 
d="M681 367c0 -203 -149 -367 -399 -367h-177v309h-70v94h70v327h186c249 0 390 -164 390 -363zM577 366c0 149 -113 274 -288 274h-84v-237h172v-94h-172v-219h65c216 0 307 140 307 276z" />
    <glyph glyph-name="eth" unicode="&#xf0;" horiz-adv-x="496" 
d="M461 212c0 -103 -63 -224 -214 -224c-123 0 -212 87 -212 223c0 112 80 217 210 217c43 0 74 -13 100 -37c-9 49 -36 106 -71 163l-106 -43l-33 68l94 38c-26 34 -55 66 -84 93l40 39c44 -29 82 -64 115 -103l72 29l32 -68l-56 -23c74 -111 113 -244 113 -372zM364 209
c0 81 -46 131 -119 131c-71 0 -113 -58 -113 -129c0 -83 42 -135 112 -135c85 0 120 58 120 133z" />
    <glyph glyph-name="Lslash" unicode="&#x141;" horiz-adv-x="509" 
d="M482 0h-377v290l-49 -20l-37 82l86 35v343h100v-303l151 61l36 -82l-187 -76v-236h277v-94z" />
    <glyph glyph-name="lslash" unicode="&#x142;" horiz-adv-x="279" 
d="M274 370l-92 -37v-333h-95v294l-49 -20l-33 73l82 33v350h95v-311l60 24z" />
    <glyph glyph-name="Scaron" unicode="&#x160;" horiz-adv-x="520" 
d="M483 193c0 -131 -102 -205 -224 -205c-74 0 -147 19 -214 74l57 77c39 -35 102 -54 152 -54c74 0 125 33 125 102c0 62 -57 96 -122 129c-104 53 -210 99 -210 238c0 108 80 188 211 188c73 0 140 -22 197 -62l-54 -82c-45 33 -83 46 -144 46c-57 0 -105 -29 -105 -84
c0 -79 70 -106 160 -151c83 -41 171 -94 171 -216zM402 935l-103 -147h-88l-103 147h95l53 -83l53 83h93z" />
    <glyph glyph-name="scaron" unicode="&#x161;" horiz-adv-x="364" 
d="M328 116c0 -70 -60 -126 -144 -126c-58 0 -108 19 -150 53l47 71c35 -28 75 -39 98 -39c27 0 54 11 54 36c0 29 -26 44 -62 62c-54 26 -126 54 -126 138c0 65 62 117 138 117c40 0 90 -7 134 -37l-39 -75c-30 21 -67 29 -91 29c-22 0 -47 -6 -47 -32c0 -22 30 -36 67 -54
c54 -27 121 -62 121 -143zM330 640l-103 -147h-88l-103 147h95l53 -83l53 83h93z" />
    <glyph glyph-name="Yacute" unicode="&#xdd;" horiz-adv-x="645" 
d="M625 730l-254 -391v-339h-100v339l-251 391h116l176 -273c4 -6 11 -21 11 -21s7 14 12 22l176 272h114zM460 925l-93 -147h-96l93 147h96z" />
    <glyph glyph-name="yacute" unicode="&#xfd;" horiz-adv-x="424" 
d="M412 416l-179 -490c-19 -55 -48 -105 -132 -105c-24 0 -42 1 -67 9v86c13 -5 28 -9 41 -9c61 0 67 42 82 85l-145 424h103l92 -272c2 -7 6 -25 6 -25s4 17 7 26l91 271h101zM350 640l-93 -147h-96l93 147h96z" />
    <glyph glyph-name="Thorn" unicode="&#xde;" horiz-adv-x="560" 
d="M533 369c0 -116 -102 -218 -220 -218h-138v-151h-100v730h100v-136h119c148 0 239 -98 239 -225zM429 375c0 80 -57 125 -150 125h-104v-255h110c84 0 144 47 144 130z" />
    <glyph glyph-name="thorn" unicode="&#xfe;" horiz-adv-x="492" 
d="M457 214c0 -121 -76 -226 -184 -226c-57 0 -97 32 -118 62v-229h-95v909h95v-364c31 39 69 62 118 62c108 0 184 -91 184 -214zM360 210c0 70 -36 130 -107 130c-63 0 -106 -64 -106 -130s43 -134 105 -134c71 0 108 60 108 134z" />
    <glyph glyph-name="Zcaron" unicode="&#x17d;" horiz-adv-x="618" 
d="M586 730l-387 -618c-5 -8 -12 -15 -12 -15s12 1 21 1h366v-98h-560l382 614c6 9 14 19 14 19s-11 -1 -21 -1h-312v98h509zM453 935l-103 -147h-88l-103 147h95l53 -83l53 83h93z" />
    <glyph glyph-name="zcaron" unicode="&#x17e;" horiz-adv-x="432" 
d="M412 416l-217 -316c-4 -6 -11 -13 -11 -13s9 1 17 1h192v-88h-377l216 318c4 6 10 11 10 11s-8 -1 -16 -1h-171v88h357zM375 640l-103 -147h-88l-103 147h95l53 -83l53 83h93z" />
    <glyph glyph-name="onehalf" unicode="&#xbd;" 
d="M448 648h-166v82h166v-82zM730 282h-82v166h82v-166zM448 282h-166v166h166v-166zM82 282h-82v166h82v-166zM448 0h-166v82h166v-82z" />
    <glyph glyph-name="onequarter" unicode="&#xbc;" 
d="M448 648h-166v82h166v-82zM730 282h-82v166h82v-166zM448 282h-166v166h166v-166zM82 282h-82v166h82v-166zM448 0h-166v82h166v-82z" />
    <glyph glyph-name="onesuperior" unicode="&#xb9;" 
d="M448 648h-166v82h166v-82zM730 282h-82v166h82v-166zM448 282h-166v166h166v-166zM82 282h-82v166h82v-166zM448 0h-166v82h166v-82z" />
    <glyph glyph-name="threequarters" unicode="&#xbe;" 
d="M448 648h-166v82h166v-82zM730 282h-82v166h82v-166zM448 282h-166v166h166v-166zM82 282h-82v166h82v-166zM448 0h-166v82h166v-82z" />
    <glyph glyph-name="threesuperior" unicode="&#xb3;" 
d="M448 648h-166v82h166v-82zM730 282h-82v166h82v-166zM448 282h-166v166h166v-166zM82 282h-82v166h82v-166zM448 0h-166v82h166v-82z" />
    <glyph glyph-name="twosuperior" unicode="&#xb2;" 
d="M448 648h-166v82h166v-82zM730 282h-82v166h82v-166zM448 282h-166v166h166v-166zM82 282h-82v166h82v-166zM448 0h-166v82h166v-82z" />
    <glyph glyph-name="brokenbar" unicode="&#xa6;" 
d="M448 648h-166v82h166v-82zM730 282h-82v166h82v-166zM448 282h-166v166h166v-166zM82 282h-82v166h82v-166zM448 0h-166v82h166v-82z" />
    <glyph glyph-name="minus" unicode="&#x2212;" 
d="M448 648h-166v82h166v-82zM730 282h-82v166h82v-166zM448 282h-166v166h166v-166zM82 282h-82v166h82v-166zM448 0h-166v82h166v-82z" />
    <glyph glyph-name="multiply" unicode="&#xd7;" 
d="M448 648h-166v82h166v-82zM730 282h-82v166h82v-166zM448 282h-166v166h166v-166zM82 282h-82v166h82v-166zM448 0h-166v82h166v-82z" />
    <glyph glyph-name="space" unicode=" " horiz-adv-x="150" 
 />
    <glyph glyph-name="exclam" unicode="!" horiz-adv-x="213" 
d="M156 435l-20 -279h-65l-20 279v295h105v-295zM156 0h-105v110h105v-110z" />
    <glyph glyph-name="quotedbl" unicode="&#x22;" horiz-adv-x="341" 
d="M291 623l-20 -110h-55l-20 110v107h95v-107zM145 623l-20 -110h-55l-20 110v107h95v-107z" />
    <glyph glyph-name="numbersign" unicode="#" horiz-adv-x="616" 
d="M571 207h-125l-18 -207h-90l18 207h-124l-18 -207h-90l18 207h-97v76h104l15 167h-119v76h125l18 204h90l-18 -204h124l18 204h90l-18 -204h97v-76h-104l-14 -167h118v-76zM378 450h-125l-14 -167h124z" />
    <glyph glyph-name="dollar" unicode="$" horiz-adv-x="570" 
d="M537 193c0 -112 -95 -181 -216 -193v-79h-73v79c-93 11 -183 63 -227 115l64 62c31 -31 95 -73 163 -85v266c-95 41 -191 87 -191 201c0 109 92 161 191 171v58h73v-58c84 -9 153 -47 180 -75l-53 -73c-41 34 -83 52 -127 58c0 1 0 -209 0 -209
c103 -45 216 -100 216 -238zM248 463v178c-47 -7 -93 -28 -93 -78c0 -46 39 -74 93 -100zM433 193c0 65 -49 102 -112 133v-235c66 9 112 42 112 102z" />
    <glyph glyph-name="percent" unicode="%" horiz-adv-x="740" 
d="M334 556c0 -108 -55 -191 -144 -191c-71 0 -140 62 -140 188c0 107 55 189 143 189c91 0 141 -85 141 -186zM665 730l-499 -730h-101l499 730h101zM690 179c0 -108 -55 -191 -144 -191c-71 0 -140 62 -140 188c0 107 55 189 143 189c91 0 141 -85 141 -186zM250 553
c0 52 -17 116 -58 116s-59 -61 -59 -116c0 -54 16 -115 57 -115c44 0 60 62 60 115zM606 176c0 52 -17 116 -58 116s-59 -61 -59 -116c0 -54 16 -115 57 -115c44 0 60 62 60 115z" />
    <glyph glyph-name="ampersand" unicode="&#x26;" horiz-adv-x="642" 
d="M630 0h-126l-54 63c-67 -47 -131 -75 -214 -75c-112 0 -208 80 -208 186c0 98 71 177 142 221l-38 44c-31 36 -58 81 -58 134c0 93 82 169 174 169c106 0 176 -71 176 -168c0 -90 -72 -149 -125 -191l167 -192c23 22 44 45 64 74l69 -61c-23 -31 -49 -58 -76 -82z
M329 574c0 48 -29 85 -79 85c-41 0 -78 -40 -78 -85c0 -38 15 -63 47 -99l25 -28c22 14 85 64 85 127zM397 129l-170 200c-46 -31 -100 -80 -100 -145c0 -62 54 -109 116 -109c57 0 109 19 154 54z" />
    <glyph glyph-name="quotesingle" unicode="'" horiz-adv-x="195" 
d="M145 623l-20 -110h-55l-20 110v107h95v-107z" />
    <glyph glyph-name="parenleft" unicode="(" horiz-adv-x="286" 
d="M275 -179c-120 76 -246 260 -246 472c0 183 112 368 246 456v-80c-102 -102 -142 -220 -143 -376c-1 -162 36 -286 143 -391v-81z" />
    <glyph glyph-name="parenright" unicode=")" horiz-adv-x="286" 
d="M259 293c0 -212 -126 -396 -246 -472v81c106 105 143 229 142 391c-1 156 -41 274 -142 376v80c133 -88 246 -273 246 -456z" />
    <glyph glyph-name="asterisk" unicode="*" horiz-adv-x="393" 
d="M353 598l-100 -43l55 -91l-41 -32l-71 82l-70 -81l-43 30l56 93l-99 41l16 50l105 -25l9 108h52l8 -108l105 25z" />
    <glyph glyph-name="plus" unicode="+" horiz-adv-x="502" 
d="M467 288h-171v-163h-90v163h-171v86h171v163h90v-163h171v-86z" />
    <glyph glyph-name="comma" unicode="," horiz-adv-x="195" 
d="M150 34c0 -74 -50 -151 -72 -179h-60c9 23 27 76 27 124v131h105v-76z" />
    <glyph glyph-name="hyphen" unicode="-" horiz-adv-x="302" 
d="M257 168h-212v86h212v-86z" />
    <glyph glyph-name="period" unicode="." horiz-adv-x="195" 
d="M150 0h-105v110h105v-110z" />
    <glyph glyph-name="slash" unicode="/" horiz-adv-x="386" 
d="M372 730l-263 -730h-95l263 730h95z" />
    <glyph glyph-name="zero" unicode="0" horiz-adv-x="608" 
d="M568 369c0 -216 -89 -381 -267 -381c-143 0 -261 123 -261 375c0 214 90 379 266 379c182 0 262 -170 262 -373zM462 363c0 130 -35 285 -158 285c-117 0 -159 -148 -159 -284c0 -134 50 -282 156 -282c124 0 161 150 161 281z" />
    <glyph glyph-name="one" unicode="1" horiz-adv-x="343" 
d="M273 0h-99v575c-26 -24 -100 -58 -149 -63v94c59 9 144 53 181 124h67v-730z" />
    <glyph glyph-name="two" unicode="2" horiz-adv-x="583" 
d="M531 0h-485l317 401c42 53 48 89 48 116c0 103 -85 130 -134 130c-97 0 -136 -66 -136 -142h-97c0 156 102 237 233 237c117 0 235 -63 235 -225c0 -51 -17 -108 -63 -165l-209 -257h291v-95z" />
    <glyph glyph-name="three" unicode="3" horiz-adv-x="597" 
d="M552 215c0 -95 -56 -227 -270 -227c-115 0 -208 34 -259 74l55 78c50 -36 123 -63 203 -63c119 0 171 71 171 139c0 100 -79 132 -154 132h-91v88h92c71 0 132 42 132 111c0 32 -26 104 -133 104c-85 0 -137 -53 -163 -98l-83 44c26 58 98 145 247 145
c197 0 230 -127 230 -198c0 -68 -43 -123 -91 -148c65 -31 114 -89 114 -181z" />
    <glyph glyph-name="four" unicode="4" horiz-adv-x="573" 
d="M554 172h-102v-172h-95v172h-333v69l351 489h77v-469h102v-89zM357 261v302s-8 -15 -16 -26l-194 -276h210z" />
    <glyph glyph-name="five" unicode="5" horiz-adv-x="583" 
d="M540 254c0 -165 -107 -266 -262 -266c-92 0 -188 41 -234 81l52 79c39 -29 109 -67 182 -67c110 0 159 86 159 168c0 93 -54 162 -143 162c-58 0 -108 -28 -135 -81l-76 9l31 391h382v-90h-296l-14 -178c26 23 62 39 125 39c144 0 229 -109 229 -247z" />
    <glyph glyph-name="six" unicode="6" horiz-adv-x="550" 
d="M518 225c0 -129 -95 -237 -238 -237c-131 0 -235 93 -235 250c0 139 58 250 102 325l101 167h110l-85 -137c-12 -20 -85 -131 -102 -174c32 33 77 51 119 51c147 0 228 -111 228 -245zM419 227c0 95 -60 158 -135 158c-84 0 -140 -69 -140 -152c0 -98 64 -161 139 -161
c82 0 136 72 136 155z" />
    <glyph glyph-name="seven" unicode="7" horiz-adv-x="529" 
d="M516 730l-326 -730h-111l291 638h-311v92h457z" />
    <glyph glyph-name="eight" unicode="8" horiz-adv-x="616" 
d="M571 208c0 -137 -99 -220 -260 -220c-159 0 -260 82 -260 220c0 104 61 158 112 179c-44 26 -89 63 -89 148c0 134 109 207 237 207c139 0 236 -84 236 -207c0 -75 -44 -122 -89 -148c52 -21 113 -78 113 -179zM444 535c0 70 -51 119 -133 119c-70 0 -135 -45 -135 -119
c0 -77 68 -115 135 -115c75 0 133 42 133 115zM467 208c0 77 -64 122 -156 122c-98 0 -158 -41 -158 -122s76 -129 158 -129c86 0 156 42 156 129z" />
    <glyph glyph-name="nine" unicode="9" horiz-adv-x="573" 
d="M531 495c0 -134 -61 -249 -101 -311l-130 -202l-84 55l173 257c-34 -30 -78 -43 -118 -43c-129 0 -233 97 -233 242c0 142 105 249 242 249c147 0 251 -102 251 -247zM427 493c0 96 -58 159 -145 159c-86 0 -139 -74 -139 -161c0 -92 64 -152 139 -152
c86 0 145 65 145 154z" />
    <glyph glyph-name="colon" unicode=":" horiz-adv-x="195" 
d="M150 318h-105v110h105v-110zM150 0h-105v110h105v-110z" />
    <glyph glyph-name="semicolon" unicode=";" horiz-adv-x="195" 
d="M150 318h-105v110h105v-110zM150 34c0 -74 -50 -151 -72 -179h-60c9 23 27 76 27 124v131h105v-76z" />
    <glyph glyph-name="less" unicode="&#x3c;" horiz-adv-x="370" 
d="M309 102l-271 185v75l271 183v-105l-186 -115l186 -116v-107z" />
    <glyph glyph-name="equal" unicode="=" horiz-adv-x="522" 
d="M457 388h-392v86h392v-86zM457 192h-392v86h392v-86z" />
    <glyph glyph-name="greater" unicode="&#x3e;" horiz-adv-x="370" 
d="M332 287l-271 -185v107l186 116l-186 115v105l271 -183v-75z" />
    <glyph glyph-name="question" unicode="?" horiz-adv-x="441" 
d="M414 543c0 -93 -52 -147 -98 -209c-38 -51 -69 -103 -69 -175h-97c0 102 51 169 94 228c39 51 70 91 70 150c0 62 -37 118 -103 118c-53 0 -97 -32 -129 -72l-66 67c52 61 113 92 195 92c131 0 203 -84 203 -199zM251 0h-105v110h105v-110z" />
    <glyph glyph-name="at" unicode="@" horiz-adv-x="844" 
d="M799 395c0 -179 -101 -244 -163 -244c-57 0 -79 23 -92 56c-36 -31 -92 -56 -164 -56c-103 0 -156 63 -156 140c0 92 85 147 213 147h100c0 71 -39 88 -108 88c-52 0 -97 -8 -133 -24l-28 57c39 23 104 32 150 32c116 0 187 -28 187 -148v-207c0 -26 13 -33 41 -33
c34 0 99 49 99 189c0 154 -125 295 -323 295c-178 0 -323 -144 -323 -323c0 -177 145 -322 323 -322c38 0 81 5 130 28l22 -49c-55 -25 -106 -33 -152 -33c-208 0 -377 169 -377 377s169 377 377 377c220 0 377 -155 377 -347zM535 273v103h-99c-87 0 -130 -31 -130 -85
c0 -40 17 -72 100 -72c42 0 96 20 129 54z" />
    <glyph glyph-name="A" unicode="A" horiz-adv-x="676" 
d="M651 0h-111l-88 236h-233l-88 -236h-106l280 730h64zM417 330l-76 204c-3 8 -6 20 -6 20s-3 -12 -5 -19l-76 -205h163z" />
    <glyph glyph-name="B" unicode="B" horiz-adv-x="560" 
d="M519 198c0 -91 -64 -198 -225 -198h-219v730h193c124 0 212 -76 212 -190c0 -84 -37 -138 -84 -168c57 -17 123 -84 123 -174zM376 532c0 65 -43 104 -125 104h-76v-231h67c109 0 134 66 134 127zM415 206c0 63 -48 105 -122 105h-118v-217h108c90 0 132 44 132 112z" />
    <glyph glyph-name="C" unicode="C" 
d="M691 125c-56 -78 -160 -137 -288 -137c-178 0 -358 145 -358 377c0 211 152 377 362 377c132 0 211 -45 270 -114l-74 -66c-50 52 -114 82 -194 82c-142 0 -260 -110 -260 -277c0 -188 144 -281 256 -281c70 0 152 28 214 101z" />
    <glyph glyph-name="D" unicode="D" horiz-adv-x="696" 
d="M651 367c0 -203 -149 -367 -399 -367h-177v730h186c249 0 390 -164 390 -363zM547 366c0 149 -113 274 -288 274h-84v-550h65c216 0 307 140 307 276z" />
    <glyph glyph-name="E" unicode="E" horiz-adv-x="553" 
d="M502 0h-427v730h408v-94h-308v-233h301v-94h-301v-215h327v-94z" />
    <glyph glyph-name="F" unicode="F" horiz-adv-x="484" 
d="M435 636h-260v-233h245v-94h-245v-309h-100v730h360v-94z" />
    <glyph glyph-name="G" unicode="G" horiz-adv-x="784" 
d="M749 327c0 -198 -158 -339 -334 -339c-185 0 -370 151 -370 377s170 377 371 377c118 0 199 -38 269 -99l-61 -74c-63 52 -125 75 -210 75c-147 0 -265 -111 -265 -280c0 -148 121 -278 269 -278c105 0 189 59 215 147h-220v94h336z" />
    <glyph glyph-name="H" unicode="H" horiz-adv-x="700" 
d="M625 0h-100v314h-350v-314h-100v730h100v-322h350v322h100v-730z" />
    <glyph glyph-name="I" unicode="I" horiz-adv-x="250" 
d="M175 0h-100v730h100v-730z" />
    <glyph glyph-name="J" unicode="J" horiz-adv-x="365" 
d="M295 176c0 -93 -59 -188 -190 -188c-25 0 -44 0 -75 9v90c22 -5 47 -5 67 -5c65 0 98 38 98 101v547h100v-554z" />
    <glyph glyph-name="K" unicode="K" horiz-adv-x="646" 
d="M633 0h-129l-293 338l-36 -37v-301h-100v730h100v-299l283 299h128l-308 -322z" />
    <glyph glyph-name="L" unicode="L" horiz-adv-x="479" 
d="M452 0h-377v730h100v-636h277v-94z" />
    <glyph glyph-name="M" unicode="M" horiz-adv-x="866" 
d="M791 0h-100v537c0 13 2 28 2 28s-6 -12 -10 -17l-229 -309h-40l-231 301c-4 5 -10 16 -10 16s2 -14 2 -27v-529h-100v730h85l275 -357l267 357h89v-730z" />
    <glyph glyph-name="N" unicode="N" horiz-adv-x="724" 
d="M649 0h-80l-383 529l-13 20s2 -16 2 -24v-525h-100v730h85l378 -519c6 -8 13 -21 13 -21s-2 15 -2 24v516h100v-730z" />
    <glyph glyph-name="O" unicode="O" horiz-adv-x="838" 
d="M793 365c0 -212 -167 -377 -373 -377c-209 0 -375 159 -375 379c0 213 159 375 370 375c226 0 378 -165 378 -377zM689 369c0 158 -112 275 -273 275c-158 0 -267 -117 -267 -277c0 -162 127 -281 271 -281c143 0 269 108 269 283z" />
    <glyph glyph-name="P" unicode="P" horiz-adv-x="560" 
d="M533 505c0 -116 -102 -218 -220 -218h-138v-287h-100v730h219c148 0 239 -98 239 -225zM429 511c0 80 -57 125 -150 125h-104v-255h110c84 0 144 47 144 130z" />
    <glyph glyph-name="Q" unicode="Q" horiz-adv-x="838" 
d="M793 365c0 -108 -43 -204 -113 -272c24 -13 51 -22 77 -23l-68 -81c-33 9 -63 25 -89 45c-54 -29 -115 -46 -180 -46c-209 0 -375 159 -375 379c0 213 159 375 370 375c226 0 378 -165 378 -377zM689 369c0 158 -112 275 -273 275c-158 0 -267 -117 -267 -277
c0 -162 127 -281 271 -281c37 0 72 7 105 20c-19 24 -34 47 -43 65l65 57c12 -23 31 -49 53 -73c54 49 89 122 89 214z" />
    <glyph glyph-name="R" unicode="R" horiz-adv-x="610" 
d="M598 0h-128l-295 341v-341h-100v730h236c136 0 226 -97 226 -215c0 -117 -99 -209 -208 -209zM433 519c0 50 -45 117 -140 117h-118v-251h116c90 0 142 56 142 134z" />
    <glyph glyph-name="S" unicode="S" horiz-adv-x="520" 
d="M483 193c0 -131 -102 -205 -224 -205c-74 0 -147 19 -214 74l57 77c39 -35 102 -54 152 -54c74 0 125 33 125 102c0 62 -57 96 -122 129c-104 53 -210 99 -210 238c0 108 80 188 211 188c73 0 140 -22 197 -62l-54 -82c-45 33 -83 46 -144 46c-57 0 -105 -29 -105 -84
c0 -79 70 -106 160 -151c83 -41 171 -94 171 -216z" />
    <glyph glyph-name="T" unicode="T" horiz-adv-x="480" 
d="M442 636h-155v-636h-100v636h-149v94h404v-94z" />
    <glyph glyph-name="U" unicode="U" horiz-adv-x="711" 
d="M641 276c0 -174 -123 -288 -286 -288c-168 0 -285 108 -285 288v454h101v-454c0 -141 88 -194 184 -194c95 0 187 54 187 194v454h99v-454z" />
    <glyph glyph-name="V" unicode="V" horiz-adv-x="625" 
d="M600 730l-256 -730h-62l-257 730h97l185 -527c3 -9 6 -25 6 -25s3 16 6 25l186 527h95z" />
    <glyph glyph-name="W" unicode="W" horiz-adv-x="919" 
d="M883 730l-204 -730h-68l-148 487c-6 18 -9 37 -9 37s-4 -21 -9 -37l-151 -487h-66l-192 730h98l127 -479c3 -13 6 -31 6 -31s4 19 8 32l151 478h66l146 -482c3 -11 6 -29 6 -29s3 18 6 30l136 481h97z" />
    <glyph glyph-name="X" unicode="X" horiz-adv-x="688" 
d="M658 0h-121l-163 249c-12 18 -31 51 -31 51s-19 -32 -33 -53l-162 -247h-116l253 385l-224 345h123l140 -216c11 -17 23 -38 23 -38s11 21 24 40l141 214h115l-223 -340z" />
    <glyph glyph-name="Y" unicode="Y" horiz-adv-x="645" 
d="M625 730l-254 -391v-339h-100v339l-251 391h116l176 -273c4 -6 11 -21 11 -21s7 14 12 22l176 272h114z" />
    <glyph glyph-name="Z" unicode="Z" horiz-adv-x="618" 
d="M586 730l-387 -618c-5 -8 -12 -15 -12 -15s12 1 21 1h366v-98h-560l382 614c6 9 14 19 14 19s-11 -1 -21 -1h-312v98h509z" />
    <glyph glyph-name="bracketleft" unicode="[" horiz-adv-x="305" 
d="M275 -179h-200v909h200v-89h-105v-731h105v-89z" />
    <glyph glyph-name="backslash" unicode="\" horiz-adv-x="386" 
d="M372 0h-95l-263 730h95z" />
    <glyph glyph-name="bracketright" unicode="]" horiz-adv-x="305" 
d="M230 -179h-200v89h105v731h-105v89h200v-909z" />
    <glyph glyph-name="asciicircum" unicode="^" horiz-adv-x="483" 
d="M453 369h-107l-106 266l-105 -266h-105l163 361h95z" />
    <glyph glyph-name="underscore" unicode="_" horiz-adv-x="500" 
d="M500 -129h-500v66h500v-66z" />
    <glyph glyph-name="grave" unicode="`" horiz-adv-x="500" 
d="M351 493h-96l-93 147h96z" />
    <glyph glyph-name="a" unicode="a" horiz-adv-x="461" 
d="M411 0h-95v30c-38 -29 -80 -42 -130 -42c-105 0 -156 63 -156 140c0 98 98 152 226 152h62c0 50 -21 68 -83 68c-52 0 -92 -7 -128 -23l-33 71c39 23 104 32 150 32c116 0 187 -34 187 -124v-304zM316 105v98h-27c-108 0 -162 -22 -162 -75c0 -40 45 -56 85 -56
c42 0 66 7 104 33z" />
    <glyph glyph-name="b" unicode="b" horiz-adv-x="492" 
d="M457 214c0 -121 -76 -226 -184 -226c-57 0 -97 32 -118 62v-50h-95v730h95v-364c27 37 69 62 118 62c108 0 184 -91 184 -214zM360 210c0 70 -36 130 -107 130c-63 0 -106 -64 -106 -130s43 -134 105 -134c71 0 108 60 108 134z" />
    <glyph glyph-name="c" unicode="c" horiz-adv-x="460" 
d="M438 89c-39 -54 -109 -101 -185 -101c-145 0 -218 98 -218 220c0 116 83 220 210 220c95 0 157 -55 185 -97l-69 -52c-22 28 -56 61 -115 61c-72 0 -114 -66 -114 -128c0 -87 48 -136 120 -136c49 0 88 26 121 65z" />
    <glyph glyph-name="d" unicode="d" horiz-adv-x="492" 
d="M432 0h-95v46c-21 -30 -61 -58 -118 -58c-108 0 -184 102 -184 223c0 123 76 217 184 217c49 0 87 -18 118 -56v358h95v-730zM345 210c0 66 -41 130 -107 130c-68 0 -106 -64 -106 -133c0 -70 38 -131 105 -131s108 64 108 134z" />
    <glyph glyph-name="e" unicode="e" horiz-adv-x="490" 
d="M457 196h-327c3 -67 50 -120 123 -120c65 0 101 21 139 50l58 -60c-52 -45 -110 -78 -198 -78c-122 0 -217 84 -217 224c0 122 88 216 213 216s209 -97 209 -232zM354 268c-15 48 -57 75 -110 75c-54 0 -99 -29 -110 -75h220z" />
    <glyph glyph-name="f" unicode="f" horiz-adv-x="266" 
d="M239 328h-65v-328h-95v328h-60v88h60v221c0 64 55 96 107 96c19 0 31 0 50 -4v-83s-16 4 -28 2c-20 -3 -34 -14 -34 -46v-186h65v-88z" />
    <glyph glyph-name="g" unicode="g" horiz-adv-x="492" 
d="M432 4c0 -146 -95 -193 -206 -193c-60 0 -120 13 -163 49l47 70c47 -31 82 -34 112 -34c60 0 115 26 115 84v65c-28 -39 -69 -57 -118 -57c-108 0 -184 91 -184 214c0 121 76 226 184 226c57 0 97 -29 118 -59v47h95v-412zM345 208c0 66 -41 132 -107 132
c-68 0 -106 -63 -106 -132c0 -70 38 -132 105 -132c66 0 108 62 108 132z" />
    <glyph glyph-name="h" unicode="h" horiz-adv-x="473" 
d="M423 0h-95v253c0 61 -36 87 -76 87c-52 0 -97 -40 -97 -117v-223h-95v730h95v-364c21 33 64 62 116 62c86 0 152 -52 152 -157v-271z" />
    <glyph glyph-name="i" unicode="i" horiz-adv-x="215" 
d="M155 511h-95v115h95v-115zM155 0h-95v416h95v-416z" />
    <glyph glyph-name="j" unicode="j" horiz-adv-x="215" 
d="M155 511h-95v115h95v-115zM155 -62c0 -93 -68 -117 -121 -117c-23 0 -27 0 -49 5v82c26 -3 29 -3 43 -2c10 1 32 1 32 30v480h95v-478z" />
    <glyph glyph-name="k" unicode="k" horiz-adv-x="470" 
d="M452 0h-123l-129 180l-45 -39v-141h-95v730h95v-473l165 159h131l-181 -170z" />
    <glyph glyph-name="l" unicode="l" horiz-adv-x="215" 
d="M155 0h-95v730h95v-730z" />
    <glyph glyph-name="m" unicode="m" horiz-adv-x="725" 
d="M675 0h-95v266c0 51 -31 74 -73 74c-51 0 -92 -40 -92 -92v-248h-95v266c0 51 -33 74 -75 74c-51 0 -90 -40 -90 -93v-247h-95v416h95v-40c24 30 66 52 110 52c66 0 104 -23 131 -64c32 44 91 64 134 64c109 0 145 -69 145 -153v-275z" />
    <glyph glyph-name="n" unicode="n" horiz-adv-x="476" 
d="M426 0h-95v253c0 51 -25 87 -79 87c-71 0 -97 -65 -97 -116v-224h-95v416h95v-50c26 40 70 62 118 62c89 0 153 -54 153 -157v-271z" />
    <glyph glyph-name="o" unicode="o" horiz-adv-x="496" 
d="M461 215c0 -126 -87 -227 -214 -227c-123 0 -212 87 -212 223c0 112 80 217 210 217s216 -100 216 -213zM364 209c0 81 -46 131 -119 131c-71 0 -113 -58 -113 -129c0 -83 42 -135 112 -135c85 0 120 58 120 133z" />
    <glyph glyph-name="p" unicode="p" horiz-adv-x="492" 
d="M457 205c0 -123 -76 -217 -184 -217c-49 0 -92 21 -118 57v-224h-95v595h95v-47c21 30 61 59 118 59c108 0 184 -102 184 -223zM360 209c0 70 -38 131 -105 131c-66 0 -108 -64 -108 -134c0 -66 41 -130 107 -130c68 0 106 64 106 133z" />
    <glyph glyph-name="q" unicode="q" horiz-adv-x="492" 
d="M432 -179h-95v224c-26 -36 -69 -57 -118 -57c-108 0 -184 91 -184 214c0 121 76 226 184 226c57 0 97 -29 118 -59v47h95v-595zM345 208c0 66 -41 132 -107 132c-68 0 -106 -63 -106 -132c0 -70 38 -132 105 -132c66 0 108 62 108 132z" />
    <glyph glyph-name="r" unicode="r" horiz-adv-x="354" 
d="M349 397l-43 -80c-22 16 -42 21 -60 21c-53 0 -91 -47 -91 -127v-211h-95v416h95v-50c30 41 68 62 112 62c33 0 56 -10 82 -31z" />
    <glyph glyph-name="s" unicode="s" horiz-adv-x="364" 
d="M328 116c0 -70 -60 -126 -144 -126c-58 0 -108 19 -150 53l47 71c35 -28 75 -39 98 -39c27 0 54 11 54 36c0 29 -26 44 -62 62c-54 26 -126 54 -126 138c0 65 62 117 138 117c40 0 90 -7 134 -37l-39 -75c-30 21 -67 29 -91 29c-22 0 -47 -6 -47 -32c0 -22 30 -36 67 -54
c54 -27 121 -62 121 -143z" />
    <glyph glyph-name="t" unicode="t" horiz-adv-x="290" 
d="M251 -5c0 0 -12 -1 -16 -1c-95 0 -155 19 -155 141v193h-57v88h57v195h95v-195h75v-88h-75v-190c0 -44 16 -54 59 -54c5 0 17 1 17 1v-90z" />
    <glyph glyph-name="u" unicode="u" horiz-adv-x="481" 
d="M421 0h-95v50c-23 -35 -65 -62 -118 -62c-99 0 -153 54 -153 157v271h95v-253c0 -47 27 -87 79 -87c66 0 97 65 97 116v224h95v-416z" />
    <glyph glyph-name="v" unicode="v" horiz-adv-x="421" 
d="M411 416l-201 -428l-200 428h105l90 -201c4 -8 7 -20 7 -20s3 13 7 21l91 200h101z" />
    <glyph glyph-name="w" unicode="w" horiz-adv-x="633" 
d="M623 416l-186 -428l-112 245c-4 9 -8 21 -8 21s-4 -12 -8 -21l-114 -245l-185 428h102l85 -196c3 -7 7 -19 7 -19s4 11 9 21l104 206l103 -206l9 -21l9 23l84 192h101z" />
    <glyph glyph-name="x" unicode="x" horiz-adv-x="444" 
d="M434 0h-116l-83 124c-6 9 -14 23 -14 23s-7 -15 -13 -23l-82 -124h-116l154 229l-125 187h116l54 -81c5 -8 13 -22 13 -22s8 15 14 23l53 80h113l-123 -185z" />
    <glyph glyph-name="y" unicode="y" horiz-adv-x="424" 
d="M412 416l-179 -490c-19 -55 -48 -105 -132 -105c-24 0 -42 1 -67 9v86c13 -5 28 -9 41 -9c61 0 67 42 82 85l-145 424h103l92 -272c2 -7 6 -25 6 -25s4 17 7 26l91 271h101z" />
    <glyph glyph-name="z" unicode="z" horiz-adv-x="432" 
d="M412 416l-217 -316c-4 -6 -11 -13 -11 -13s9 1 17 1h192v-88h-377l216 318c4 6 10 11 10 11s-8 -1 -16 -1h-171v88h357z" />
    <glyph glyph-name="braceleft" unicode="{" horiz-adv-x="320" 
d="M279 -179c-143 46 -169 131 -169 267c0 84 0 159 -70 159v76c70 0 70 75 70 159c0 136 26 221 169 267v-60c-60 -45 -74 -96 -74 -193c0 -85 -3 -177 -72 -211c69 -34 72 -126 72 -211c0 -97 14 -148 74 -193v-60z" />
    <glyph glyph-name="bar" unicode="|" horiz-adv-x="243" 
d="M168 -179h-93v909h93v-909z" />
    <glyph glyph-name="braceright" unicode="}" horiz-adv-x="320" 
d="M280 247c-70 0 -70 -75 -70 -159c0 -136 -26 -221 -169 -267v60c60 45 74 96 74 193c0 85 3 177 72 211c-69 34 -72 126 -72 211c0 97 -14 148 -74 193v60c143 -46 169 -131 169 -267c0 -84 0 -159 70 -159v-76z" />
    <glyph glyph-name="asciitilde" unicode="~" horiz-adv-x="500" 
d="M460 449c-10 -94 -31 -167 -123 -167c-39 0 -77 24 -101 43c-34 27 -47 37 -69 37c-21 0 -31 -38 -33 -77h-94c10 94 27 166 123 166c38 0 76 -24 101 -43c27 -21 48 -37 69 -37s31 38 33 78h94z" />
    <glyph glyph-name="Adieresis" unicode="&#xc4;" horiz-adv-x="676" 
d="M570 619h-91v111h91v-111zM195 619h-91v111h91v-111zM651 0h-111l-88 236h-233l-88 -236h-106l280 730h64zM417 330l-76 204c-3 8 -6 20 -6 20s-3 -12 -5 -19l-76 -205h163z" />
    <glyph glyph-name="Aring" unicode="&#xc5;" horiz-adv-x="676" 
d="M651 0h-111l-88 236h-233l-88 -236h-106l263 685c-39 18 -65 56 -65 102c0 63 50 113 113 113s113 -50 113 -113c0 -45 -25 -83 -63 -101zM390 787c0 30 -24 54 -54 54s-54 -24 -54 -54s24 -54 54 -54s54 24 54 54zM417 330l-76 204c-3 8 -6 20 -6 20s-3 -12 -5 -19
l-76 -205h163z" />
    <glyph glyph-name="Ccedilla" unicode="&#xc7;" 
d="M691 125c-52 -73 -146 -129 -263 -136l-25 -32c52 0 86 -21 86 -58c0 -54 -60 -78 -115 -78c-41 0 -71 13 -99 32l27 32c21 -16 46 -21 72 -21c19 0 38 9 38 29c0 19 -21 26 -40 26c-14 0 -21 -1 -33 -5l-21 22l45 54c-164 20 -318 161 -318 375c0 211 152 377 362 377
c132 0 211 -45 270 -114l-74 -66c-50 52 -114 82 -194 82c-142 0 -260 -110 -260 -277c0 -188 144 -281 256 -281c70 0 152 28 214 101z" />
    <glyph glyph-name="Eacute" unicode="&#xc9;" horiz-adv-x="553" 
d="M502 0h-427v730h408v-94h-308v-233h301v-94h-301v-215h327v-94zM404 935l-93 -147h-96l93 147h96z" />
    <glyph glyph-name="Ntilde" unicode="&#xd1;" horiz-adv-x="724" 
d="M649 0h-80l-383 529l-13 20s2 -16 2 -24v-525h-100v730h85l378 -519c6 -8 13 -21 13 -21s-2 15 -2 24v516h100v-730zM513 878c0 -67 -22 -119 -88 -119c-24 0 -53 16 -71 28c-17 11 -31 20 -47 20c-15 0 -19 -16 -20 -46h-74c0 67 19 119 88 119c23 0 53 -16 71 -28
c16 -11 31 -20 47 -20c15 0 19 15 20 46h74z" />
    <glyph glyph-name="Odieresis" unicode="&#xd6;" horiz-adv-x="838" 
d="M816 619h-91v111h91v-111zM793 365c0 -212 -167 -377 -373 -377c-209 0 -375 159 -375 379c0 213 159 375 370 375c226 0 378 -165 378 -377zM689 369c0 158 -112 275 -273 275c-158 0 -267 -117 -267 -277c0 -162 127 -281 271 -281c143 0 269 108 269 283zM113 619h-91
v111h91v-111z" />
    <glyph glyph-name="Udieresis" unicode="&#xdc;" horiz-adv-x="711" 
d="M479 619h-91v111h91v-111zM325 619h-91v111h91v-111zM641 276c0 -174 -123 -288 -286 -288c-168 0 -285 108 -285 288v454h101v-454c0 -141 88 -194 184 -194c95 0 187 54 187 194v454h99v-454z" />
    <glyph glyph-name="aacute" unicode="&#xe1;" horiz-adv-x="461" 
d="M411 0h-95v30c-38 -29 -80 -42 -130 -42c-105 0 -156 63 -156 140c0 98 98 152 226 152h62c0 50 -21 68 -83 68c-52 0 -92 -7 -128 -23l-33 71c39 23 104 32 150 32c116 0 187 -34 187 -124v-304zM316 105v98h-27c-108 0 -162 -22 -162 -75c0 -40 45 -56 85 -56
c42 0 66 7 104 33zM359 640l-93 -147h-96l93 147h96z" />
    <glyph glyph-name="agrave" unicode="&#xe0;" horiz-adv-x="461" 
d="M411 0h-95v30c-38 -29 -80 -42 -130 -42c-105 0 -156 63 -156 140c0 98 98 152 226 152h62c0 50 -21 68 -83 68c-52 0 -92 -7 -128 -23l-33 71c39 23 104 32 150 32c116 0 187 -34 187 -124v-304zM316 105v98h-27c-108 0 -162 -22 -162 -75c0 -40 45 -56 85 -56
c42 0 66 7 104 33zM295 493h-96l-93 147h96z" />
    <glyph glyph-name="acircumflex" unicode="&#xe2;" horiz-adv-x="461" 
d="M411 0h-95v30c-38 -29 -80 -42 -130 -42c-105 0 -156 63 -156 140c0 98 98 152 226 152h62c0 50 -21 68 -83 68c-52 0 -92 -7 -128 -23l-33 71c39 23 104 32 150 32c116 0 187 -34 187 -124v-304zM316 105v98h-27c-108 0 -162 -22 -162 -75c0 -40 45 -56 85 -56
c42 0 66 7 104 33zM383 493h-95l-53 83l-53 -83h-93l103 147h88z" />
    <glyph glyph-name="adieresis" unicode="&#xe4;" horiz-adv-x="461" 
d="M411 0h-95v30c-38 -29 -80 -42 -130 -42c-105 0 -156 63 -156 140c0 98 98 152 226 152h62c0 50 -21 68 -83 68c-52 0 -92 -7 -128 -23l-33 71c39 23 104 32 150 32c116 0 187 -34 187 -124v-304zM316 105v98h-27c-108 0 -162 -22 -162 -75c0 -40 45 -56 85 -56
c42 0 66 7 104 33zM361 493h-91v111h91v-111zM202 493h-91v111h91v-111z" />
    <glyph glyph-name="atilde" unicode="&#xe3;" horiz-adv-x="461" 
d="M411 0h-95v30c-38 -29 -80 -42 -130 -42c-105 0 -156 63 -156 140c0 98 98 152 226 152h62c0 50 -21 68 -83 68c-52 0 -92 -7 -128 -23l-33 71c39 23 104 32 150 32c116 0 187 -34 187 -124v-304zM316 105v98h-27c-108 0 -162 -22 -162 -75c0 -40 45 -56 85 -56
c42 0 66 7 104 33zM393 610c0 -67 -22 -119 -88 -119c-24 0 -53 16 -71 28c-17 11 -31 20 -47 20c-15 0 -19 -16 -20 -46h-74c0 67 19 119 88 119c23 0 53 -16 71 -28c16 -11 31 -20 47 -20c15 0 19 15 20 46h74z" />
    <glyph glyph-name="aring" unicode="&#xe5;" horiz-adv-x="461" 
d="M411 0h-95v30c-38 -29 -80 -42 -130 -42c-105 0 -156 63 -156 140c0 98 98 152 226 152h62c0 50 -21 68 -83 68c-52 0 -92 -7 -128 -23l-33 71c39 23 104 32 150 32c116 0 187 -34 187 -124v-304zM316 105v98h-27c-108 0 -162 -22 -162 -75c0 -40 45 -56 85 -56
c42 0 66 7 104 33zM354 599c0 -63 -50 -113 -113 -113s-113 50 -113 113s50 113 113 113s113 -50 113 -113zM295 599c0 30 -24 54 -54 54s-54 -24 -54 -54s24 -54 54 -54s54 24 54 54z" />
    <glyph glyph-name="ccedilla" unicode="&#xe7;" horiz-adv-x="460" 
d="M438 89c-34 -48 -93 -90 -158 -99l-26 -33c52 0 86 -21 86 -58c0 -54 -60 -78 -115 -78c-41 0 -71 13 -99 32l27 32c21 -16 46 -21 72 -21c19 0 38 9 38 29c0 19 -21 26 -40 26c-14 0 -21 -1 -33 -5l-21 22l45 55c-119 16 -179 106 -179 217c0 116 83 220 210 220
c95 0 157 -55 185 -97l-69 -52c-22 28 -56 61 -115 61c-72 0 -114 -66 -114 -128c0 -87 48 -136 120 -136c49 0 88 26 121 65z" />
    <glyph glyph-name="eacute" unicode="&#xe9;" horiz-adv-x="490" 
d="M457 196h-327c3 -67 50 -120 123 -120c65 0 101 21 139 50l58 -60c-52 -45 -110 -78 -198 -78c-122 0 -217 84 -217 224c0 122 88 216 213 216s209 -97 209 -232zM354 268c-15 48 -57 75 -110 75c-54 0 -99 -29 -110 -75h220zM370 640l-93 -147h-96l93 147h96z" />
    <glyph glyph-name="egrave" unicode="&#xe8;" horiz-adv-x="490" 
d="M457 196h-327c3 -67 50 -120 123 -120c65 0 101 21 139 50l58 -60c-52 -45 -110 -78 -198 -78c-122 0 -217 84 -217 224c0 122 88 216 213 216s209 -97 209 -232zM354 268c-15 48 -57 75 -110 75c-54 0 -99 -29 -110 -75h220zM300 493h-96l-93 147h96z" />
    <glyph glyph-name="ecircumflex" unicode="&#xea;" horiz-adv-x="490" 
d="M457 196h-327c3 -67 50 -120 123 -120c65 0 101 21 139 50l58 -60c-52 -45 -110 -78 -198 -78c-122 0 -217 84 -217 224c0 122 88 216 213 216s209 -97 209 -232zM354 268c-15 48 -57 75 -110 75c-54 0 -99 -29 -110 -75h220zM393 486h-95l-53 83l-53 -83h-93l103 147h88
z" />
    <glyph glyph-name="edieresis" unicode="&#xeb;" horiz-adv-x="490" 
d="M457 196h-327c3 -67 50 -120 123 -120c65 0 101 21 139 50l58 -60c-52 -45 -110 -78 -198 -78c-122 0 -217 84 -217 224c0 122 88 216 213 216s209 -97 209 -232zM354 268c-15 48 -57 75 -110 75c-54 0 -99 -29 -110 -75h220zM369 493h-91v111h91v-111zM210 493h-91v111
h91v-111z" />
    <glyph glyph-name="iacute" unicode="&#xed;" horiz-adv-x="215" 
d="M155 0h-95v416h95v-416zM247 640l-93 -147h-96l93 147h96z" />
    <glyph glyph-name="igrave" unicode="&#xec;" horiz-adv-x="215" 
d="M155 0h-95v416h95v-416zM158 493h-96l-93 147h96z" />
    <glyph glyph-name="icircumflex" unicode="&#xee;" horiz-adv-x="215" 
d="M155 0h-95v416h95v-416zM255 493h-95l-53 83l-53 -83h-93l103 147h88z" />
    <glyph glyph-name="idieresis" unicode="&#xef;" horiz-adv-x="215" 
d="M155 0h-95v416h95v-416zM232 493h-91v111h91v-111zM73 493h-91v111h91v-111z" />
    <glyph glyph-name="ntilde" unicode="&#xf1;" horiz-adv-x="476" 
d="M426 0h-95v253c0 51 -25 87 -79 87c-71 0 -97 -65 -97 -116v-224h-95v416h95v-50c26 40 70 62 118 62c89 0 153 -54 153 -157v-271zM391 610c0 -67 -22 -119 -88 -119c-24 0 -53 16 -71 28c-17 11 -31 20 -47 20c-15 0 -19 -16 -20 -46h-74c0 67 19 119 88 119
c23 0 53 -16 71 -28c16 -11 31 -20 47 -20c15 0 19 15 20 46h74z" />
    <glyph glyph-name="oacute" unicode="&#xf3;" horiz-adv-x="496" 
d="M461 215c0 -126 -87 -227 -214 -227c-123 0 -212 87 -212 223c0 112 80 217 210 217s216 -100 216 -213zM364 209c0 81 -46 131 -119 131c-71 0 -113 -58 -113 -129c0 -83 42 -135 112 -135c85 0 120 58 120 133zM369 640l-93 -147h-96l93 147h96z" />
    <glyph glyph-name="ograve" unicode="&#xf2;" horiz-adv-x="496" 
d="M461 215c0 -126 -87 -227 -214 -227c-123 0 -212 87 -212 223c0 112 80 217 210 217s216 -100 216 -213zM364 209c0 81 -46 131 -119 131c-71 0 -113 -58 -113 -129c0 -83 42 -135 112 -135c85 0 120 58 120 133zM300 493h-96l-93 147h96z" />
    <glyph glyph-name="ocircumflex" unicode="&#xf4;" horiz-adv-x="496" 
d="M461 215c0 -126 -87 -227 -214 -227c-123 0 -212 87 -212 223c0 112 80 217 210 217s216 -100 216 -213zM364 209c0 81 -46 131 -119 131c-71 0 -113 -58 -113 -129c0 -83 42 -135 112 -135c85 0 120 58 120 133zM390 483h-95l-53 83l-53 -83h-93l103 147h88z" />
    <glyph glyph-name="odieresis" unicode="&#xf6;" horiz-adv-x="496" 
d="M461 215c0 -126 -87 -227 -214 -227c-123 0 -212 87 -212 223c0 112 80 217 210 217s216 -100 216 -213zM364 209c0 81 -46 131 -119 131c-71 0 -113 -58 -113 -129c0 -83 42 -135 112 -135c85 0 120 58 120 133zM368 493h-91v111h91v-111zM209 493h-91v111h91v-111z" />
    <glyph glyph-name="otilde" unicode="&#xf5;" horiz-adv-x="496" 
d="M461 215c0 -126 -87 -227 -214 -227c-123 0 -212 87 -212 223c0 112 80 217 210 217s216 -100 216 -213zM364 209c0 81 -46 131 -119 131c-71 0 -113 -58 -113 -129c0 -83 42 -135 112 -135c85 0 120 58 120 133zM395 610c0 -67 -22 -119 -88 -119c-24 0 -53 16 -71 28
c-17 11 -31 20 -47 20c-15 0 -19 -16 -20 -46h-74c0 67 19 119 88 119c23 0 53 -16 71 -28c16 -11 31 -20 47 -20c15 0 19 15 20 46h74z" />
    <glyph glyph-name="uacute" unicode="&#xfa;" horiz-adv-x="481" 
d="M421 0h-95v50c-23 -35 -65 -62 -118 -62c-99 0 -153 54 -153 157v271h95v-253c0 -47 27 -87 79 -87c66 0 97 65 97 116v224h95v-416zM360 640l-93 -147h-96l93 147h96z" />
    <glyph glyph-name="ugrave" unicode="&#xf9;" horiz-adv-x="481" 
d="M421 0h-95v50c-23 -35 -65 -62 -118 -62c-99 0 -153 54 -153 157v271h95v-253c0 -47 27 -87 79 -87c66 0 97 65 97 116v224h95v-416zM327 493h-96l-93 147h96z" />
    <glyph glyph-name="ucircumflex" unicode="&#xfb;" horiz-adv-x="481" 
d="M421 0h-95v50c-23 -35 -65 -62 -118 -62c-99 0 -153 54 -153 157v271h95v-253c0 -47 27 -87 79 -87c66 0 97 65 97 116v224h95v-416zM392 493h-95l-53 83l-53 -83h-93l103 147h88z" />
    <glyph glyph-name="udieresis" unicode="&#xfc;" horiz-adv-x="481" 
d="M421 0h-95v50c-23 -35 -65 -62 -118 -62c-99 0 -153 54 -153 157v271h95v-253c0 -47 27 -87 79 -87c66 0 97 65 97 116v224h95v-416zM367 493h-91v111h91v-111zM208 493h-91v111h91v-111z" />
    <glyph glyph-name="dagger" unicode="&#x2020;" horiz-adv-x="565" 
d="M540 382h-210v-561h-95v561h-210v88h210v260h95v-260h210v-88z" />
    <glyph glyph-name="degree" unicode="&#xb0;" horiz-adv-x="436" 
d="M406 554c0 -104 -84 -188 -188 -188s-188 84 -188 188s84 188 188 188s188 -84 188 -188zM325 554c0 59 -48 107 -107 107s-107 -48 -107 -107s48 -107 107 -107s107 48 107 107z" />
    <glyph glyph-name="cent" unicode="&#xa2;" horiz-adv-x="460" 
d="M438 89c-36 -49 -97 -93 -166 -100v-68h-55v69c-121 15 -182 107 -182 218c0 107 71 204 182 218v69h55v-69c80 -9 133 -57 158 -95l-69 -52c-19 24 -46 52 -89 60v-264c40 7 73 32 101 66zM217 78v260c-55 -14 -87 -69 -87 -126c0 -75 34 -121 87 -134z" />
    <glyph glyph-name="sterling" unicode="&#xa3;" horiz-adv-x="600" 
d="M561 175c6 -76 -10 -187 -136 -187c-47 0 -102 29 -132 51c-36 -32 -87 -51 -146 -51c-64 0 -122 32 -122 97c0 60 58 91 127 91c43 0 80 -10 113 -24c2 9 4 22 4 31c0 20 -3 40 -12 58h-186v48h160c-8 13 -18 27 -29 40h-131v47h94c-36 52 -70 98 -70 163
c0 116 92 203 233 203c145 0 236 -78 227 -201h-104c5 58 -33 110 -121 110c-68 0 -129 -35 -129 -111c0 -66 39 -109 80 -164h197v-47h-165c8 -13 15 -27 22 -40h143v-48h-126c4 -16 8 -33 8 -52c0 -27 -5 -54 -14 -78c12 -9 51 -25 73 -25c47 0 49 52 49 89h93zM225 84
c-10 10 -48 25 -71 25c-33 0 -50 -9 -50 -29c0 -23 26 -27 45 -27c27 0 56 13 76 31z" />
    <glyph glyph-name="section" unicode="&#xa7;" horiz-adv-x="676" 
d="M641 250c0 -65 -43 -136 -106 -179c23 -25 36 -59 36 -98c0 -114 -86 -152 -229 -152c-94 0 -200 30 -267 76l49 75c48 -29 126 -61 221 -61c88 0 120 19 120 54s-28 56 -73 74l-220 85c-100 39 -137 99 -137 189c0 65 43 136 105 179c-22 25 -35 59 -35 98
c0 114 89 152 229 152c104 0 200 -30 267 -76l-49 -75c-48 29 -119 61 -221 61c-88 0 -120 -19 -120 -54s28 -56 73 -74l220 -85c100 -39 137 -99 137 -189zM536 249c0 47 -18 77 -95 107l-227 89c-46 -30 -74 -71 -74 -131c0 -47 18 -77 95 -107l227 -89
c46 30 74 71 74 131z" />
    <glyph glyph-name="bullet" unicode="&#x2022;" horiz-adv-x="382" 
d="M302 379c0 -61 -50 -111 -111 -111s-111 50 -111 111s50 111 111 111s111 -50 111 -111z" />
    <glyph glyph-name="paragraph" unicode="&#xb6;" horiz-adv-x="720" 
d="M645 -179h-93v820h-84v-820h-93v426h-109c-124 0 -239 110 -239 238c0 139 104 245 259 245h359v-909zM375 336v305h-84c-97 0 -162 -62 -162 -150c0 -91 68 -155 156 -155h90z" />
    <glyph glyph-name="germandbls" unicode="&#xdf;" horiz-adv-x="482" 
d="M447 190c0 -117 -68 -202 -176 -202c-22 0 -43 4 -64 12v88c17 -9 37 -12 56 -12c53 0 87 34 87 108c0 115 -79 190 -134 204v66h8c50 0 115 40 115 115c0 47 -26 95 -94 95c-55 0 -91 -42 -91 -118v-546h-94v539c0 125 62 203 185 203c121 0 186 -67 186 -167
c0 -74 -38 -135 -109 -159c79 -41 125 -137 125 -226z" />
    <glyph glyph-name="registered" unicode="&#xae;" horiz-adv-x="844" 
d="M799 365c0 -208 -169 -377 -377 -377s-377 169 -377 377s169 377 377 377s377 -169 377 -377zM745 364c0 178 -145 323 -323 323s-323 -145 -323 -323s145 -322 323 -322s323 144 323 322zM609 155h-82l-172 200v-200h-65v438h147c81 0 135 -58 135 -129
c0 -70 -59 -125 -124 -125zM505 466c0 30 -29 66 -72 66h-78v-142h70c47 0 80 28 80 76z" />
    <glyph glyph-name="copyright" unicode="&#xa9;" horiz-adv-x="844" 
d="M799 365c0 -208 -169 -377 -377 -377s-377 169 -377 377s169 377 377 377s377 -169 377 -377zM745 364c0 178 -145 323 -323 323s-323 -145 -323 -323s145 -322 323 -322s323 144 323 322zM597 223c-34 -46 -96 -82 -173 -82c-107 0 -215 84 -215 234
c0 117 91 219 217 219c79 0 127 -27 162 -69l-47 -42c-30 31 -66 47 -114 47c-84 0 -151 -66 -151 -155c0 -114 82 -170 149 -170c42 0 89 17 126 58z" />
    <glyph glyph-name="trademark" unicode="&#x2122;" horiz-adv-x="819" 
d="M771 292h-64v334l-142 -193h-24l-144 187v-328h-64v438h55l165 -214l160 214h58v-438zM274 672h-91v-380h-64v380h-87v58h242v-58z" />
    <glyph glyph-name="acute" unicode="&#xb4;" horiz-adv-x="500" 
d="M352 640l-93 -147h-96l93 147h96z" />
    <glyph glyph-name="dieresis" unicode="&#xa8;" horiz-adv-x="500" 
d="M375 493h-91v111h91v-111zM216 493h-91v111h91v-111z" />
    <glyph glyph-name="notequal" unicode="&#x2260;" horiz-adv-x="512" 
d="M485 328h-65v-328h-95v328h-60v88h60v221c0 64 55 96 107 96c19 0 31 0 50 -4v-83s-16 4 -28 2c-20 -3 -34 -14 -34 -46v-186h65v-88zM239 328h-65v-328h-95v328h-60v88h60v221c0 64 55 96 107 96c19 0 31 0 50 -4v-83s-16 4 -28 2c-20 -3 -34 -14 -34 -46v-186h65v-88z
" />
    <glyph glyph-name="AE" unicode="&#xc6;" horiz-adv-x="979" 
d="M928 0h-427v236h-232l-156 -236h-113l483 730h426v-94h-308v-233h301v-94h-301v-215h327v-94zM501 330v267l-169 -267h169z" />
    <glyph glyph-name="Oslash" unicode="&#xd8;" horiz-adv-x="838" 
d="M793 365c0 -212 -167 -377 -373 -377c-96 0 -182 33 -248 90l-78 -78l-51 48l81 81c-50 64 -79 146 -79 238c0 213 159 375 370 375c96 0 178 -30 241 -80l80 80l51 -48l-81 -81c55 -65 87 -152 87 -248zM584 590c-45 35 -102 54 -168 54c-158 0 -267 -117 -267 -277
c0 -62 19 -118 50 -163zM689 369c0 66 -20 126 -55 172l-389 -389c49 -42 110 -66 175 -66c143 0 269 108 269 283z" />
    <glyph glyph-name="infinity" unicode="&#x221e;" horiz-adv-x="724" 
d="M664 511h-95v115h95v-115zM664 0h-95v416h95v-416zM485 328h-65v-328h-95v328h-60v88h60v221c0 64 55 96 107 96c19 0 31 0 50 -4v-83s-16 4 -28 2c-20 -3 -34 -14 -34 -46v-186h65v-88zM239 328h-65v-328h-95v328h-60v88h60v221c0 64 55 96 107 96c19 0 31 0 50 -4v-83
s-16 4 -28 2c-20 -3 -34 -14 -34 -46v-186h65v-88z" />
    <glyph glyph-name="plusminus" unicode="&#xb1;" horiz-adv-x="724" 
d="M664 0h-95v730h95v-730zM485 328h-65v-328h-95v328h-60v88h60v221c0 64 55 96 107 96c19 0 31 0 50 -4v-83s-16 4 -28 2c-20 -3 -34 -14 -34 -46v-186h65v-88zM239 328h-65v-328h-95v328h-60v88h60v221c0 64 55 96 107 96c19 0 31 0 50 -4v-83s-16 4 -28 2
c-20 -3 -34 -14 -34 -46v-186h65v-88z" />
    <glyph glyph-name="lessequal" unicode="&#x2264;" 
d="M448 648h-166v82h166v-82zM730 282h-82v166h82v-166zM448 282h-166v166h166v-166zM82 282h-82v166h82v-166zM448 0h-166v82h166v-82z" />
    <glyph glyph-name="greaterequal" unicode="&#x2265;" 
d="M448 648h-166v82h166v-82zM730 282h-82v166h82v-166zM448 282h-166v166h166v-166zM82 282h-82v166h82v-166zM448 0h-166v82h166v-82z" />
    <glyph glyph-name="yen" unicode="&#xa5;" horiz-adv-x="615" 
d="M610 730l-254 -391v-68h164v-47h-164v-60h164v-48h-164v-116h-100v116h-164v48h164v60h-164v47h164v68l-251 391h115l187 -290l188 290h115z" />
    <glyph glyph-name="mu" unicode="&#xb5;" 
d="M448 648h-166v82h166v-82zM730 282h-82v166h82v-166zM448 282h-166v166h166v-166zM82 282h-82v166h82v-166zM448 0h-166v82h166v-82z" />
    <glyph glyph-name="mu" unicode="&#x3bc;" 
d="M448 648h-166v82h166v-82zM730 282h-82v166h82v-166zM448 282h-166v166h166v-166zM82 282h-82v166h82v-166zM448 0h-166v82h166v-82z" />
    <glyph glyph-name="partialdiff" unicode="&#x2202;" 
d="M448 648h-166v82h166v-82zM730 282h-82v166h82v-166zM448 282h-166v166h166v-166zM82 282h-82v166h82v-166zM448 0h-166v82h166v-82z" />
    <glyph glyph-name="summation" unicode="&#x2211;" 
d="M448 648h-166v82h166v-82zM730 282h-82v166h82v-166zM448 282h-166v166h166v-166zM82 282h-82v166h82v-166zM448 0h-166v82h166v-82z" />
    <glyph glyph-name="product" unicode="&#x220f;" 
d="M448 648h-166v82h166v-82zM730 282h-82v166h82v-166zM448 282h-166v166h166v-166zM82 282h-82v166h82v-166zM448 0h-166v82h166v-82z" />
    <glyph glyph-name="pi" unicode="&#x3c0;" horiz-adv-x="844" 
d="M799 365c0 -208 -169 -377 -377 -377s-377 169 -377 377s169 377 377 377s377 -169 377 -377zM745 364c0 178 -145 323 -323 323s-323 -145 -323 -323s145 -322 323 -322s323 144 323 322zM586 449c0 -76 -61 -136 -132 -136h-83v-167h-65v438h137c88 0 143 -59 143 -135
zM519 453c0 42 -30 70 -85 70h-63v-148h66c55 0 82 28 82 78z" />
    <glyph glyph-name="integral" unicode="&#x222b;" 
d="M448 648h-166v82h166v-82zM730 282h-82v166h82v-166zM448 282h-166v166h166v-166zM82 282h-82v166h82v-166zM448 0h-166v82h166v-82z" />
    <glyph glyph-name="ordfeminine" unicode="&#xaa;" horiz-adv-x="441" 
d="M367 400h-76v24c-30 -23 -64 -34 -104 -34c-84 0 -124 51 -124 112c0 79 78 122 180 122h50c0 40 -17 54 -66 54c-42 0 -74 -5 -103 -18l-26 57c31 18 83 25 120 25c93 0 149 -27 149 -99v-243zM367 270h-304v66h304v-66zM291 484v78h-21c-87 0 -130 -17 -130 -60
c0 -32 36 -45 68 -45c34 0 53 6 83 27z" />
    <glyph glyph-name="ordmasculine" unicode="&#xba;" horiz-adv-x="476" 
d="M408 572c0 -101 -70 -182 -171 -182c-99 0 -170 70 -170 179c0 89 64 173 168 173s173 -80 173 -170zM408 270h-341v66h341v-66zM330 567c0 65 -36 105 -95 105c-57 0 -90 -47 -90 -103c0 -67 33 -108 89 -108c68 0 96 46 96 106z" />
    <glyph glyph-name="Omega" unicode="&#x3a9;" 
d="M448 648h-166v82h166v-82zM730 282h-82v166h82v-166zM448 282h-166v166h166v-166zM82 282h-82v166h82v-166zM448 0h-166v82h166v-82z" />
    <glyph glyph-name="Omega" unicode="&#x2126;" 
d="M448 648h-166v82h166v-82zM730 282h-82v166h82v-166zM448 282h-166v166h166v-166zM82 282h-82v166h82v-166zM448 0h-166v82h166v-82z" />
    <glyph glyph-name="ae" unicode="&#xe6;" horiz-adv-x="764" 
d="M731 196h-319c0 -65 47 -123 120 -123c65 0 102 20 136 51l56 -58c-52 -45 -112 -78 -193 -78c-75 0 -126 31 -165 88c-41 -63 -96 -88 -180 -88c-105 0 -156 63 -156 140c0 90 88 140 216 140h74c0 50 -23 80 -85 80c-52 0 -92 -7 -128 -23l-33 71c39 23 104 32 150 32
c78 0 130 -17 160 -59c34 35 86 59 143 59c125 0 204 -97 204 -232zM628 268c-15 48 -52 75 -105 75c-54 0 -96 -29 -107 -75h212zM321 196h-42c-107 0 -154 -21 -154 -68c0 -40 37 -59 78 -59c52 0 118 31 118 127z" />
    <glyph glyph-name="oslash" unicode="&#xf8;" horiz-adv-x="496" 
d="M473 387l-50 -49c25 -35 38 -78 38 -123c0 -126 -87 -227 -214 -227c-52 0 -98 15 -133 43l-44 -43l-41 41l45 45c-25 36 -39 82 -39 137c0 112 80 217 210 217c55 0 103 -18 139 -48l48 48zM319 317c-19 15 -44 23 -74 23c-71 0 -113 -58 -113 -129c0 -26 4 -49 12 -68z
M364 209c0 23 -4 43 -10 60l-175 -173c17 -13 39 -20 65 -20c85 0 120 58 120 133z" />
    <glyph glyph-name="questiondown" unicode="&#xbf;" horiz-adv-x="441" 
d="M295 620h-105v110h105v-110zM425 80c-52 -61 -113 -92 -195 -92c-131 0 -203 84 -203 199c0 93 52 147 98 209c38 51 69 103 69 175h97c0 -102 -51 -169 -94 -228c-39 -51 -70 -91 -70 -150c0 -62 37 -118 103 -118c53 0 97 32 129 72z" />
    <glyph glyph-name="exclamdown" unicode="&#xa1;" horiz-adv-x="213" 
d="M156 620h-105v110h105v-110zM156 0h-105v295l20 279h65l20 -279v-295z" />
    <glyph glyph-name="logicalnot" unicode="&#xac;" 
d="M448 648h-166v82h166v-82zM730 282h-82v166h82v-166zM448 282h-166v166h166v-166zM82 282h-82v166h82v-166zM448 0h-166v82h166v-82z" />
    <glyph glyph-name="radical" unicode="&#x221a;" horiz-adv-x="510" 
d="M485 730l-237 -730h-62l-166 316h106l83 -170l176 584h100z" />
    <glyph glyph-name="florin" unicode="&#x192;" horiz-adv-x="304" 
d="M282 729l-7 -83s-16 4 -28 2c-20 -3 -35 -14 -38 -46l-16 -186h65l-8 -88h-65l-36 -411c-5 -64 -63 -96 -115 -96c-19 0 -31 0 -50 4l7 83s16 -4 28 -2c20 3 35 14 38 46l33 376h-60l8 88h60l19 221c6 64 64 96 116 96c19 0 31 0 49 -4z" />
    <glyph glyph-name="approxequal" unicode="&#x2248;" 
d="M448 648h-166v82h166v-82zM730 282h-82v166h82v-166zM448 282h-166v166h166v-166zM82 282h-82v166h82v-166zM448 0h-166v82h166v-82z" />
    <glyph glyph-name="Delta" unicode="&#x394;" 
d="M448 648h-166v82h166v-82zM730 282h-82v166h82v-166zM448 282h-166v166h166v-166zM82 282h-82v166h82v-166zM448 0h-166v82h166v-82z" />
    <glyph glyph-name="Delta" unicode="&#x2206;" 
d="M448 648h-166v82h166v-82zM730 282h-82v166h82v-166zM448 282h-166v166h166v-166zM82 282h-82v166h82v-166zM448 0h-166v82h166v-82z" />
    <glyph glyph-name="guillemotleft" unicode="&#xab;" horiz-adv-x="369" 
d="M326 42l-142 125v75l142 123v-100l-71 -60l71 -61v-102zM171 42l-141 125v75l141 123v-100l-71 -60l71 -61v-102z" />
    <glyph glyph-name="guillemotright" unicode="&#xbb;" horiz-adv-x="369" 
d="M339 167l-142 -125v102l71 61l-71 60v100l142 -123v-75zM184 167l-142 -125v102l71 61l-71 60v100l142 -123v-75z" />
    <glyph glyph-name="ellipsis" unicode="&#x2026;" horiz-adv-x="576" 
d="M531 0h-104v110h104v-110zM340 0h-104v110h104v-110zM149 0h-104v110h104v-110z" />
    <glyph glyph-name="nbspace" unicode="&#xa0;" horiz-adv-x="75" 
 />
    <glyph glyph-name="Agrave" unicode="&#xc0;" horiz-adv-x="676" 
d="M651 0h-111l-88 236h-233l-88 -236h-106l280 730h64zM417 330l-76 204c-3 8 -6 20 -6 20s-3 -12 -5 -19l-76 -205h163zM385 788h-96l-93 147h96z" />
    <glyph glyph-name="Atilde" unicode="&#xc3;" horiz-adv-x="676" 
d="M651 0h-111l-88 236h-233l-88 -236h-106l280 730h64zM417 330l-76 204c-3 8 -6 20 -6 20s-3 -12 -5 -19l-76 -205h163zM491 905c0 -67 -22 -119 -88 -119c-24 0 -53 16 -71 28c-17 11 -31 20 -47 20c-15 0 -19 -16 -20 -46h-74c0 67 19 119 88 119c23 0 53 -16 71 -28
c16 -11 31 -20 47 -20c15 0 19 15 20 46h74z" />
    <glyph glyph-name="Otilde" unicode="&#xd5;" horiz-adv-x="838" 
d="M793 365c0 -212 -167 -377 -373 -377c-209 0 -375 159 -375 379c0 213 159 375 370 375c226 0 378 -165 378 -377zM689 369c0 158 -112 275 -273 275c-158 0 -267 -117 -267 -277c0 -162 127 -281 271 -281c143 0 269 108 269 283zM566 922c0 -67 -22 -119 -88 -119
c-24 0 -53 16 -71 28c-17 11 -31 20 -47 20c-15 0 -19 -16 -20 -46h-74c0 67 19 119 88 119c23 0 53 -16 71 -28c16 -11 31 -20 47 -20c15 0 19 15 20 46h74z" />
    <glyph glyph-name="OE" unicode="&#x152;" horiz-adv-x="1165" 
d="M1114 0h-427v100c-68 -69 -162 -112 -267 -112c-209 0 -375 159 -375 379c0 213 159 375 370 375c112 0 206 -40 272 -107v95h408v-94h-308v-233h301v-94h-301v-215h327v-94zM689 369c0 158 -112 275 -273 275c-158 0 -267 -117 -267 -277c0 -162 127 -281 271 -281
c143 0 269 108 269 283z" />
    <glyph glyph-name="oe" unicode="&#x153;" horiz-adv-x="809" 
d="M776 196h-319c0 -69 47 -123 120 -123c65 0 99 21 137 50l55 -57c-52 -45 -112 -78 -193 -78c-70 0 -130 32 -165 83c-36 -53 -95 -83 -164 -83c-123 0 -212 87 -212 223c0 112 80 217 210 217c71 0 129 -29 166 -80c36 50 97 80 166 80c117 0 199 -97 199 -232zM673 268
c-15 48 -52 75 -105 75c-54 0 -96 -29 -107 -75h212zM364 209c0 81 -46 131 -119 131c-71 0 -113 -58 -113 -129c0 -83 42 -135 112 -135c85 0 120 58 120 133z" />
    <glyph glyph-name="endash" unicode="&#x2013;" horiz-adv-x="460" 
d="M415 168h-370v86h370v-86z" />
    <glyph glyph-name="emdash" unicode="&#x2014;" horiz-adv-x="645" 
d="M600 168h-555v86h555v-86z" />
    <glyph glyph-name="quotedblleft" unicode="&#x201c;" horiz-adv-x="341" 
d="M315 730c-9 -19 -27 -64 -27 -106v-111h-105v64c0 64 50 129 72 153h60zM169 730c-9 -19 -27 -64 -27 -106v-111h-105v64c0 64 50 129 72 153h60z" />
    <glyph glyph-name="quotedblright" unicode="&#x201d;" horiz-adv-x="341" 
d="M305 666c0 -64 -50 -129 -72 -153h-60c9 19 27 64 27 106v111h105v-64zM159 666c0 -64 -50 -129 -72 -153h-60c9 19 27 64 27 106v111h105v-64z" />
    <glyph glyph-name="quoteleft" unicode="&#x2018;" horiz-adv-x="197" 
d="M171 730c-9 -19 -27 -64 -27 -106v-111h-105v64c0 64 50 129 72 153h60z" />
    <glyph glyph-name="quoteright" unicode="&#x2019;" horiz-adv-x="197" 
d="M158 666c0 -64 -50 -129 -72 -153h-60c9 19 27 64 27 106v111h105v-64z" />
    <glyph glyph-name="divide" unicode="&#xf7;" 
d="M448 648h-166v82h166v-82zM730 282h-82v166h82v-166zM448 282h-166v166h166v-166zM82 282h-82v166h82v-166zM448 0h-166v82h166v-82z" />
    <glyph glyph-name="lozenge" unicode="&#x25ca;" 
d="M448 648h-166v82h166v-82zM730 282h-82v166h82v-166zM448 282h-166v166h166v-166zM82 282h-82v166h82v-166zM448 0h-166v82h166v-82z" />
    <glyph glyph-name="ydieresis" unicode="&#xff;" horiz-adv-x="424" 
d="M412 416l-179 -490c-19 -55 -48 -105 -132 -105c-24 0 -42 1 -67 9v86c13 -5 28 -9 41 -9c61 0 67 42 82 85l-145 424h103l92 -272c2 -7 6 -25 6 -25s4 17 7 26l91 271h101zM338 493h-91v111h91v-111zM179 493h-91v111h91v-111z" />
    <glyph glyph-name="Ydieresis" unicode="&#x178;" horiz-adv-x="645" 
d="M625 730l-254 -391v-339h-100v339l-251 391h116l176 -273c4 -6 11 -21 11 -21s7 14 12 22l176 272h114zM449 778h-91v111h91v-111zM290 778h-91v111h91v-111z" />
    <glyph glyph-name="fraction" unicode="&#x2044;" horiz-adv-x="382" 
d="M450 730l-423 -730h-95l423 730h95z" />
    <glyph glyph-name="currency" unicode="&#xa4;" 
d="M448 648h-166v82h166v-82zM730 282h-82v166h82v-166zM448 282h-166v166h166v-166zM82 282h-82v166h82v-166zM448 0h-166v82h166v-82z" />
    <glyph glyph-name="guilsinglleft" unicode="&#x2039;" horiz-adv-x="214" 
d="M172 42l-141 125v75l141 123v-100l-71 -60l71 -61v-102z" />
    <glyph glyph-name="guilsinglright" unicode="&#x203a;" horiz-adv-x="214" 
d="M184 167l-142 -125v102l71 61l-71 60v100l142 -123v-75z" />
    <glyph glyph-name="fi" unicode="&#xfb01;" horiz-adv-x="478" 
d="M418 511h-95v115h95v-115zM418 0h-95v416h95v-416zM239 328h-65v-328h-95v328h-60v88h60v221c0 64 55 96 107 96c19 0 31 0 50 -4v-83s-16 4 -28 2c-20 -3 -34 -14 -34 -46v-186h65v-88z" />
    <glyph glyph-name="fl" unicode="&#xfb02;" horiz-adv-x="478" 
d="M418 0h-95v730h95v-730zM239 328h-65v-328h-95v328h-60v88h60v221c0 64 55 96 107 96c19 0 31 0 50 -4v-83s-16 4 -28 2c-20 -3 -34 -14 -34 -46v-186h65v-88z" />
    <glyph glyph-name="daggerdbl" unicode="&#x2021;" horiz-adv-x="565" 
d="M540 94h-210v-273h-95v273h-210v88h210v200h-210v88h210v260h95v-260h210v-88h-210v-200h210v-88z" />
    <glyph glyph-name="periodcentered" unicode="&#xb7;" horiz-adv-x="195" 
d="M150 306h-105v110h105v-110z" />
    <glyph glyph-name="quotesinglbase" unicode="&#x201a;" horiz-adv-x="197" 
d="M155 46c0 -64 -50 -129 -72 -153h-60c9 19 27 64 27 106v111h105v-64z" />
    <glyph glyph-name="quotedblbase" unicode="&#x201e;" horiz-adv-x="341" 
d="M301 46c0 -64 -50 -129 -72 -153h-60c9 19 27 64 27 106v111h105v-64zM155 46c0 -64 -50 -129 -72 -153h-60c9 19 27 64 27 106v111h105v-64z" />
    <glyph glyph-name="perthousand" unicode="&#x2030;" horiz-adv-x="1050" 
d="M1010 179c0 -108 -55 -191 -144 -191c-71 0 -140 62 -140 188c0 107 55 189 143 189c91 0 141 -85 141 -186zM334 556c0 -108 -55 -191 -144 -191c-71 0 -140 62 -140 188c0 107 55 189 143 189c91 0 141 -85 141 -186zM665 730l-499 -730h-101l499 730h101zM690 179
c0 -108 -55 -191 -144 -191c-71 0 -140 62 -140 188c0 107 55 189 143 189c91 0 141 -85 141 -186zM926 176c0 52 -17 116 -58 116s-59 -61 -59 -116c0 -54 16 -115 57 -115c44 0 60 62 60 115zM250 553c0 52 -17 116 -58 116s-59 -61 -59 -116c0 -54 16 -115 57 -115
c44 0 60 62 60 115zM606 176c0 52 -17 116 -58 116s-59 -61 -59 -116c0 -54 16 -115 57 -115c44 0 60 62 60 115z" />
    <glyph glyph-name="Acircumflex" unicode="&#xc2;" horiz-adv-x="676" 
d="M651 0h-111l-88 236h-233l-88 -236h-106l280 730h64zM417 330l-76 204c-3 8 -6 20 -6 20s-3 -12 -5 -19l-76 -205h163zM484 778h-95l-53 83l-53 -83h-93l103 147h88z" />
    <glyph glyph-name="Ecircumflex" unicode="&#xca;" horiz-adv-x="553" 
d="M502 0h-427v730h408v-94h-308v-233h301v-94h-301v-215h327v-94zM423 788h-95l-53 83l-53 -83h-93l103 147h88z" />
    <glyph glyph-name="Aacute" unicode="&#xc1;" horiz-adv-x="676" 
d="M651 0h-111l-88 236h-233l-88 -236h-106l280 730h64zM417 330l-76 204c-3 8 -6 20 -6 20s-3 -12 -5 -19l-76 -205h163zM474 935l-93 -147h-96l93 147h96z" />
    <glyph glyph-name="Edieresis" unicode="&#xcb;" horiz-adv-x="553" 
d="M502 0h-427v730h408v-94h-308v-233h301v-94h-301v-215h327v-94zM402 788h-91v111h91v-111zM243 788h-91v111h91v-111z" />
    <glyph glyph-name="Egrave" unicode="&#xc8;" horiz-adv-x="553" 
d="M502 0h-427v730h408v-94h-308v-233h301v-94h-301v-215h327v-94zM335 788h-96l-93 147h96z" />
    <glyph glyph-name="Iacute" unicode="&#xcd;" horiz-adv-x="250" 
d="M175 0h-100v730h100v-730zM265 935l-93 -147h-96l93 147h96z" />
    <glyph glyph-name="Icircumflex" unicode="&#xce;" horiz-adv-x="250" 
d="M175 0h-100v730h100v-730zM272 788h-95l-53 83l-53 -83h-93l103 147h88z" />
    <glyph glyph-name="Idieresis" unicode="&#xcf;" horiz-adv-x="250" 
d="M175 0h-100v730h100v-730zM250 788h-91v111h91v-111zM91 788h-91v111h91v-111z" />
    <glyph glyph-name="Igrave" unicode="&#xcc;" horiz-adv-x="250" 
d="M175 0h-100v730h100v-730zM173 788h-96l-93 147h96z" />
    <glyph glyph-name="Oacute" unicode="&#xd3;" horiz-adv-x="838" 
d="M793 365c0 -212 -167 -377 -373 -377c-209 0 -375 159 -375 379c0 213 159 375 370 375c226 0 378 -165 378 -377zM689 369c0 158 -112 275 -273 275c-158 0 -267 -117 -267 -277c0 -162 127 -281 271 -281c143 0 269 108 269 283zM546 935l-93 -147h-96l93 147h96z" />
    <glyph glyph-name="Ocircumflex" unicode="&#xd4;" horiz-adv-x="838" 
d="M793 365c0 -212 -167 -377 -373 -377c-209 0 -375 159 -375 379c0 213 159 375 370 375c226 0 378 -165 378 -377zM689 369c0 158 -112 275 -273 275c-158 0 -267 -117 -267 -277c0 -162 127 -281 271 -281c143 0 269 108 269 283zM562 788h-95l-53 83l-53 -83h-93
l103 147h88z" />
    <glyph glyph-name="apple" 
d="M448 648h-166v82h166v-82zM730 282h-82v166h82v-166zM448 282h-166v166h166v-166zM82 282h-82v166h82v-166zM448 0h-166v82h166v-82z" />
    <glyph glyph-name="Ograve" unicode="&#xd2;" horiz-adv-x="838" 
d="M793 365c0 -212 -167 -377 -373 -377c-209 0 -375 159 -375 379c0 213 159 375 370 375c226 0 378 -165 378 -377zM689 369c0 158 -112 275 -273 275c-158 0 -267 -117 -267 -277c0 -162 127 -281 271 -281c143 0 269 108 269 283zM465 788h-96l-93 147h96z" />
    <glyph glyph-name="Uacute" unicode="&#xda;" horiz-adv-x="711" 
d="M641 276c0 -174 -123 -288 -286 -288c-168 0 -285 108 -285 288v454h101v-454c0 -141 88 -194 184 -194c95 0 187 54 187 194v454h99v-454zM470 925l-93 -147h-96l93 147h96z" />
    <glyph glyph-name="Ucircumflex" unicode="&#xdb;" horiz-adv-x="711" 
d="M641 276c0 -174 -123 -288 -286 -288c-168 0 -285 108 -285 288v454h101v-454c0 -141 88 -194 184 -194c95 0 187 54 187 194v454h99v-454zM503 778h-95l-53 83l-53 -83h-93l103 147h88z" />
    <glyph glyph-name="Ugrave" unicode="&#xd9;" horiz-adv-x="711" 
d="M641 276c0 -174 -123 -288 -286 -288c-168 0 -285 108 -285 288v454h101v-454c0 -141 88 -194 184 -194c95 0 187 54 187 194v454h99v-454zM423 778h-96l-93 147h96z" />
    <glyph glyph-name="dotlessi" unicode="&#x131;" horiz-adv-x="215" 
d="M155 0h-95v416h95v-416z" />
    <glyph glyph-name="circumflex" unicode="&#x2c6;" horiz-adv-x="500" 
d="M397 493h-95l-53 83l-53 -83h-93l103 147h88z" />
    <glyph glyph-name="tilde" unicode="&#x2dc;" horiz-adv-x="500" 
d="M400 610c0 -67 -22 -119 -88 -119c-24 0 -53 16 -71 28c-17 11 -31 20 -47 20c-15 0 -19 -16 -20 -46h-74c0 67 19 119 88 119c23 0 53 -16 71 -28c16 -11 31 -20 47 -20c15 0 19 15 20 46h74z" />
    <glyph glyph-name="macron" unicode="&#xaf;" horiz-adv-x="500" 
d="M400 493h-300v66h300v-66z" />
    <glyph glyph-name="breve" unicode="&#x2d8;" horiz-adv-x="500" 
d="M398 635c-8 -96 -67 -147 -148 -147s-140 51 -148 147h72c4 -39 26 -80 76 -80s73 42 76 80h72z" />
    <glyph glyph-name="dotaccent" unicode="&#x2d9;" horiz-adv-x="500" 
d="M296 493h-92v111h92v-111z" />
    <glyph glyph-name="ring" unicode="&#x2da;" horiz-adv-x="500" 
d="M363 599c0 -63 -50 -113 -113 -113s-113 50 -113 113s50 113 113 113s113 -50 113 -113zM304 599c0 30 -24 54 -54 54s-54 -24 -54 -54s24 -54 54 -54s54 24 54 54z" />
    <glyph glyph-name="cedilla" unicode="&#xb8;" horiz-adv-x="500" 
d="M350 -101c0 -54 -60 -78 -115 -78c-41 0 -71 13 -99 32l27 32c21 -16 46 -21 72 -21c19 0 38 9 38 29c0 19 -21 26 -40 26c-14 0 -21 -1 -33 -5l-21 22l64 78h66l-45 -57c52 0 86 -21 86 -58z" />
    <glyph glyph-name="hungarumlaut" unicode="&#x2dd;" horiz-adv-x="500" 
d="M414 640l-93 -147h-91l93 147h91zM270 640l-93 -147h-91l93 147h91z" />
    <glyph glyph-name="ogonek" unicode="&#x2db;" horiz-adv-x="500" 
d="M339 -149c-27 -22 -58 -32 -99 -32c-55 0 -115 29 -115 83c0 37 31 75 101 110h66c-66 -46 -85 -78 -85 -106c0 -29 19 -39 38 -39c26 0 43 5 67 21z" />
    <glyph glyph-name="caron" unicode="&#x2c7;" horiz-adv-x="500" 
d="M395 640l-103 -147h-88l-103 147h95l53 -83l53 83h93z" />
    </font>
</defs>
</svg>
